<?xml version="1.0" encoding="UTF-8" standalone="no"?>
<!-- Created with Inkscape (http://www.inkscape.org/) -->

<svg
   xmlns:ns0="http://www.iki.fi/pav/software/textext/"
   xmlns:i="http://ns.adobe.com/AdobeIllustrator/10.0/"
   xmlns:a="http://ns.adobe.com/AdobeSVGViewerExtensions/3.0/"
   xmlns:dc="http://purl.org/dc/elements/1.1/"
   xmlns:cc="http://creativecommons.org/ns#"
   xmlns:rdf="http://www.w3.org/1999/02/22-rdf-syntax-ns#"
   xmlns:svg="http://www.w3.org/2000/svg"
   xmlns="http://www.w3.org/2000/svg"
   xmlns:xlink="http://www.w3.org/1999/xlink"
   xmlns:sodipodi="http://sodipodi.sourceforge.net/DTD/sodipodi-0.dtd"
   xmlns:inkscape="http://www.inkscape.org/namespaces/inkscape"
   width="585"
   height="160.2"
   id="svg2"
   version="1.1"
   inkscape:version="0.48.1 r9760"
   sodipodi:docname="cavity.svg">
  <sodipodi:namedview
     id="base"
     pagecolor="#ffffff"
     bordercolor="#666666"
     borderopacity="1.0"
     inkscape:pageopacity="0.0"
     inkscape:pageshadow="2"
     inkscape:zoom="2"
     inkscape:cx="261.66792"
     inkscape:cy="81.42586"
     inkscape:document-units="px"
     inkscape:current-layer="layer1"
     showgrid="false"
     units="in"
     inkscape:window-width="1440"
     inkscape:window-height="845"
     inkscape:window-x="0"
     inkscape:window-y="1"
     inkscape:window-maximized="1" />
  <defs
     id="defs4">
    <marker
       inkscape:stockid="DotM"
       orient="auto"
       refY="0"
       refX="0"
       id="DotM"
       style="overflow:visible">
      <path
         id="path14245"
         d="m -2.5,-1 c 0,2.76 -2.24,5 -5,5 -2.76,0 -5,-2.24 -5,-5 0,-2.76 2.24,-5 5,-5 2.76,0 5,2.24 5,5 z"
         style="fill-rule:evenodd;stroke:#000000;stroke-width:1pt;marker-start:none;marker-end:none"
         transform="matrix(0.4,0,0,0.4,2.96,0.4)"
         inkscape:connector-curvature="0" />
    </marker>
    <marker
       inkscape:stockid="Arrow1Mend"
       orient="auto"
       refY="0"
       refX="0"
       id="Arrow1Mend"
       style="overflow:visible">
      <path
         id="path14189"
         d="M 0,0 5,-5 -12.5,0 5,5 0,0 z"
         style="fill-rule:evenodd;stroke:#000000;stroke-width:1pt;marker-start:none"
         transform="matrix(-0.4,0,0,-0.4,-4,0)"
         inkscape:connector-curvature="0" />
    </marker>
    <linearGradient
       inkscape:collect="always"
       xlink:href="#linearGradient3853"
       id="linearGradient5982"
       gradientUnits="userSpaceOnUse"
       gradientTransform="matrix(0.8,0,0,0.8,-34.8284,-61.1108)"
       x1="43.666752"
       y1="112.7585"
       x2="43.666752"
       y2="76.388496" />
    <linearGradient
       gradientTransform="matrix(0.35,0,0,1,-115.4937,-14.3086)"
       y2="14.6831"
       x2="343.29099"
       y1="43.0298"
       x1="343.29099"
       gradientUnits="userSpaceOnUse"
       id="linearGradient3853">
      <stop
         id="stop3835"
         style="stop-color:#89A4B6"
         offset="0.0056" />
      <stop
         id="stop3837"
         style="stop-color:#FFFFFF"
         offset="0.5" />
      <stop
         id="stop3839"
         style="stop-color:#89A4B6"
         offset="1" />
      <a:midPointStop
         style="stop-color:#89A4B6"
         offset="0.0056" />
      <a:midPointStop
         style="stop-color:#89A4B6"
         offset="0.5" />
      <a:midPointStop
         style="stop-color:#FFFFFF"
         offset="0.5" />
      <a:midPointStop
         style="stop-color:#FFFFFF"
         offset="0.5" />
      <a:midPointStop
         style="stop-color:#89A4B6"
         offset="1" />
    </linearGradient>
    <linearGradient
       inkscape:collect="always"
       xlink:href="#linearGradient3853"
       id="linearGradient13385"
       gradientUnits="userSpaceOnUse"
       gradientTransform="matrix(0.8,0,0,0.8,-34.8284,-61.1108)"
       x1="43.666752"
       y1="112.7585"
       x2="43.666752"
       y2="76.388496" />
    <marker
       inkscape:stockid="Arrow1Mend"
       orient="auto"
       refY="0"
       refX="0"
       id="Arrow1Mend-2"
       style="overflow:visible">
      <path
         inkscape:connector-curvature="0"
         id="path14189-0"
         d="M 0,0 5,-5 -12.5,0 5,5 0,0 z"
         style="fill-rule:evenodd;stroke:#000000;stroke-width:1pt;marker-start:none"
         transform="matrix(-0.4,0,0,-0.4,-4,0)" />
    </marker>
  </defs>
  <metadata
     id="metadata7">
    <rdf:RDF>
      <cc:Work
         rdf:about="">
        <dc:format>image/svg+xml</dc:format>
        <dc:type
           rdf:resource="http://purl.org/dc/dcmitype/StillImage" />
        <dc:title />
      </cc:Work>
    </rdf:RDF>
  </metadata>
  <g
     inkscape:label="Layer 1"
     inkscape:groupmode="layer"
     id="layer1"
     transform="translate(0,-892.16238)">
    <g
       style="display:inline;enable-background:new"
       i:rgbTrio="#4F008000FFFF"
       i:dimmedPercent="50"
       i:layer="yes"
       id="g3850"
       transform="matrix(4.6968304,0,0,4.6968304,429.20492,905.65044)">
      <g
         id="g3832">
        <linearGradient
           gradientTransform="matrix(0.35,0,0,1,-115.4937,-14.3086)"
           y2="14.6831"
           x2="343.29099"
           y1="43.0298"
           x1="343.29099"
           gradientUnits="userSpaceOnUse"
           id="linearGradient13330">
          <stop
             id="stop13332"
             style="stop-color:#89A4B6"
             offset="0.0056" />
          <stop
             id="stop13334"
             style="stop-color:#FFFFFF"
             offset="0.5" />
          <stop
             id="stop13336"
             style="stop-color:#89A4B6"
             offset="1" />
          <a:midPointStop
             style="stop-color:#89A4B6"
             offset="0.0056" />
          <a:midPointStop
             style="stop-color:#89A4B6"
             offset="0.5" />
          <a:midPointStop
             style="stop-color:#FFFFFF"
             offset="0.5" />
          <a:midPointStop
             style="stop-color:#FFFFFF"
             offset="0.5" />
          <a:midPointStop
             style="stop-color:#89A4B6"
             offset="1" />
        </linearGradient>
        <path
           inkscape:connector-curvature="0"
           id="path3841"
           d="m 8.836,0.375 -8.356,0 c 0.764,3.046 1.27,8.254 1.27,14.172 0,5.92 -0.506,11.128 -1.27,14.174 l 8.355,0 0,-28.346 10e-4,0 0,0 z"
           i:knockout="Off"
           style="fill:url(#linearGradient5982);fill-opacity:1;stroke:#000000;stroke-width:0.15968214" />
      </g>
    </g>
    <g
       transform="matrix(-4.6968304,0,0,4.6968304,170.57127,905.65044)"
       id="g13371"
       i:layer="yes"
       i:dimmedPercent="50"
       i:rgbTrio="#4F008000FFFF"
       style="display:inline;enable-background:new">
      <g
         id="g13373">
        <linearGradient
           id="linearGradient13375"
           gradientUnits="userSpaceOnUse"
           x1="343.29099"
           y1="43.0298"
           x2="343.29099"
           y2="14.6831"
           gradientTransform="matrix(0.35,0,0,1,-115.4937,-14.3086)">
          <stop
             offset="0.0056"
             style="stop-color:#89A4B6"
             id="stop13377" />
          <stop
             offset="0.5"
             style="stop-color:#FFFFFF"
             id="stop13379" />
          <stop
             offset="1"
             style="stop-color:#89A4B6"
             id="stop13381" />
          <a:midPointStop
             offset="0.0056"
             style="stop-color:#89A4B6" />
          <a:midPointStop
             offset="0.5"
             style="stop-color:#89A4B6" />
          <a:midPointStop
             offset="0.5"
             style="stop-color:#FFFFFF" />
          <a:midPointStop
             offset="0.5"
             style="stop-color:#FFFFFF" />
          <a:midPointStop
             offset="1"
             style="stop-color:#89A4B6" />
        </linearGradient>
        <path
           style="fill:url(#linearGradient13385);fill-opacity:1;stroke:#000000;stroke-width:0.15968214"
           i:knockout="Off"
           d="m 8.836,0.375 -8.356,0 c 0.764,3.046 1.27,8.254 1.27,14.172 0,5.92 -0.506,11.128 -1.27,14.174 l 8.355,0 0,-28.346 10e-4,0 0,0 z"
           id="path13383"
           inkscape:connector-curvature="0" />
      </g>
    </g>
    <path
       style="fill:none;stroke:#000000;stroke-width:2;stroke-linecap:butt;stroke-linejoin:miter;stroke-miterlimit:4;stroke-opacity:1;stroke-dasharray:none;marker-end:url(#Arrow1Mend-2)"
       d="m 52.527932,933.72783 62.629458,0"
       id="path14175"
       inkscape:connector-curvature="0" />
    <path
       style="fill:none;stroke:#000000;stroke-width:2;stroke-linecap:butt;stroke-linejoin:miter;stroke-miterlimit:4;stroke-opacity:1;stroke-dasharray:none;marker-start:none;marker-end:url(#Arrow1Mend)"
       d="m 184.10791,933.72783 234.28479,0"
       id="path14175-6"
       inkscape:connector-curvature="0" />
    <use
       x="0"
       y="0"
       xlink:href="#path14175-6"
       id="use15205"
       transform="matrix(-1,0,0,1,600.97015,62.629453)"
       width="585"
       height="250.2" />
    <use
       x="0"
       y="0"
       xlink:href="#path14175"
       id="use15207"
       transform="matrix(-1,0,0,1,169.18532,62.629456)"
       width="585"
       height="250.2" />
    <use
       x="0"
       y="0"
       xlink:href="#path14175"
       id="use15209"
       transform="translate(433.35544,0)"
       width="585"
       height="250.2" />
    <g
       id="g15358"
       ns0:preamble=""
       ns0:text="$E_0$"
       transform="translate(-168.88981,782.14667)">
      <defs
         id="defs15360">
        <g
           id="g15362">
          <symbol
             id="textext-f1107de9-0"
             overflow="visible"
             style="overflow:visible">
            <path
               id="path15365"
               d="M 7.0625,-2.328125 C 7.078125,-2.375 7.109375,-2.4375 7.109375,-2.46875 c 0,0 0,-0.109375 -0.125,-0.109375 -0.09375,0 -0.109375,0.0625 -0.125,0.125 -0.65625,1.46875 -1.015625,2.140625 -2.71875,2.140625 l -1.453125,0 c -0.140625,0 -0.171875,0 -0.21875,0 -0.109375,-0.015625 -0.140625,-0.03125 -0.140625,-0.109375 0,-0.03125 0,-0.046875 0.046875,-0.21875 L 3.0625,-3.375 l 0.984375,0 c 0.84375,0 0.84375,0.21875 0.84375,0.46875 0,0.0625 0,0.1875 -0.0625,0.484375 C 4.8125,-2.375 4.796875,-2.34375 4.796875,-2.3125 c 0,0.046875 0.03125,0.109375 0.125,0.109375 C 5,-2.203125 5.03125,-2.25 5.078125,-2.40625 l 0.5625,-2.328125 c 0,-0.0625 -0.046875,-0.109375 -0.125,-0.109375 -0.078125,0 -0.109375,0.0625 -0.125,0.171875 -0.21875,0.765625 -0.390625,1 -1.3125,1 l -0.9375,0 0.59375,-2.40625 C 3.828125,-6.4375 3.84375,-6.46875 4.28125,-6.46875 l 1.40625,0 c 1.203125,0 1.515625,0.28125 1.515625,1.109375 0,0.234375 0,0.25 -0.046875,0.53125 0,0.046875 -0.015625,0.125 -0.015625,0.171875 0,0.046875 0.03125,0.125 0.125,0.125 0.109375,0 0.125,-0.0625 0.140625,-0.25 L 7.609375,-6.515625 C 7.640625,-6.78125 7.59375,-6.78125 7.34375,-6.78125 l -5.046875,0 c -0.1875,0 -0.296875,0 -0.296875,0.203125 0,0.109375 0.09375,0.109375 0.28125,0.109375 0.375,0 0.65625,0 0.65625,0.171875 0,0.046875 0,0.0625 -0.0625,0.25 L 1.5625,-0.78125 c -0.09375,0.390625 -0.109375,0.46875 -0.90625,0.46875 -0.171875,0 -0.28125,0 -0.28125,0.1875 C 0.375,0 0.46875,0 0.65625,0 l 5.171875,0 c 0.234375,0 0.25,-0.015625 0.3125,-0.171875 z m 0,0"
               style="stroke:none"
               inkscape:connector-curvature="0" />
          </symbol>
          <symbol
             id="textext-f1107de9-1"
             overflow="visible"
             style="overflow:visible">
            <path
               id="path15368"
               d="M 3.59375,-2.21875 C 3.59375,-2.984375 3.5,-3.546875 3.1875,-4.03125 2.96875,-4.34375 2.53125,-4.625 1.984375,-4.625 c -1.625,0 -1.625,1.90625 -1.625,2.40625 0,0.5 0,2.359375 1.625,2.359375 1.609375,0 1.609375,-1.859375 1.609375,-2.359375 z M 1.984375,-0.0625 c -0.328125,0 -0.75,-0.1875 -0.890625,-0.75 C 1,-1.21875 1,-1.796875 1,-2.3125 1,-2.828125 1,-3.359375 1.09375,-3.734375 1.25,-4.28125 1.6875,-4.4375 1.984375,-4.4375 c 0.375,0 0.734375,0.234375 0.859375,0.640625 0.109375,0.375 0.125,0.875 0.125,1.484375 0,0.515625 0,1.03125 -0.09375,1.46875 -0.140625,0.640625 -0.609375,0.78125 -0.890625,0.78125 z m 0,0"
               style="stroke:none"
               inkscape:connector-curvature="0" />
          </symbol>
        </g>
      </defs>
      <g
         id="textext-f1107de9-2">
        <g
           id="g15371"
           style="fill:#000000;fill-opacity:1">
          <use
             id="use15373"
             y="134.765"
             x="223.43201"
             xlink:href="#textext-f1107de9-0"
             width="585"
             height="250.2" />
        </g>
        <g
           id="g15375"
           style="fill:#000000;fill-opacity:1">
          <use
             id="use15377"
             y="136.259"
             x="230.786"
             xlink:href="#textext-f1107de9-1"
             width="585"
             height="250.2" />
        </g>
      </g>
    </g>
    <g
       ns0:text="$E_+$"
       ns0:preamble=""
       transform="translate(-35.88981,785.14667)"
       id="g15497">
      <defs
         id="defs15499">
        <g
           id="g15501">
          <symbol
             overflow="visible"
             id="textext-a7b3e410-0"
             style="overflow:visible">
            <path
               style="stroke:none"
               d="M 7.0625,-2.328125 C 7.078125,-2.375 7.109375,-2.4375 7.109375,-2.46875 c 0,0 0,-0.109375 -0.125,-0.109375 -0.09375,0 -0.109375,0.0625 -0.125,0.125 -0.65625,1.46875 -1.015625,2.140625 -2.71875,2.140625 l -1.453125,0 c -0.140625,0 -0.171875,0 -0.21875,0 -0.109375,-0.015625 -0.140625,-0.03125 -0.140625,-0.109375 0,-0.03125 0,-0.046875 0.046875,-0.21875 L 3.0625,-3.375 l 0.984375,0 c 0.84375,0 0.84375,0.21875 0.84375,0.46875 0,0.0625 0,0.1875 -0.0625,0.484375 C 4.8125,-2.375 4.796875,-2.34375 4.796875,-2.3125 c 0,0.046875 0.03125,0.109375 0.125,0.109375 C 5,-2.203125 5.03125,-2.25 5.078125,-2.40625 l 0.5625,-2.328125 c 0,-0.0625 -0.046875,-0.109375 -0.125,-0.109375 -0.078125,0 -0.109375,0.0625 -0.125,0.171875 -0.21875,0.765625 -0.390625,1 -1.3125,1 l -0.9375,0 0.59375,-2.40625 C 3.828125,-6.4375 3.84375,-6.46875 4.28125,-6.46875 l 1.40625,0 c 1.203125,0 1.515625,0.28125 1.515625,1.109375 0,0.234375 0,0.25 -0.046875,0.53125 0,0.046875 -0.015625,0.125 -0.015625,0.171875 0,0.046875 0.03125,0.125 0.125,0.125 0.109375,0 0.125,-0.0625 0.140625,-0.25 L 7.609375,-6.515625 C 7.640625,-6.78125 7.59375,-6.78125 7.34375,-6.78125 l -5.046875,0 c -0.1875,0 -0.296875,0 -0.296875,0.203125 0,0.109375 0.09375,0.109375 0.28125,0.109375 0.375,0 0.65625,0 0.65625,0.171875 0,0.046875 0,0.0625 -0.0625,0.25 L 1.5625,-0.78125 c -0.09375,0.390625 -0.109375,0.46875 -0.90625,0.46875 -0.171875,0 -0.28125,0 -0.28125,0.1875 C 0.375,0 0.46875,0 0.65625,0 l 5.171875,0 c 0.234375,0 0.25,-0.015625 0.3125,-0.171875 z m 0,0"
               id="path15504"
               inkscape:connector-curvature="0" />
          </symbol>
          <symbol
             overflow="visible"
             id="textext-a7b3e410-1"
             style="overflow:visible">
            <path
               style="stroke:none"
               d="m 3.21875,-1.578125 2.140625,0 c 0.09375,0 0.25,0 0.25,-0.15625 0,-0.1875 -0.15625,-0.1875 -0.25,-0.1875 l -2.140625,0 0,-2.140625 c 0,-0.078125 0,-0.25 -0.15625,-0.25 -0.171875,0 -0.171875,0.15625 -0.171875,0.25 l 0,2.140625 -2.140625,0 c -0.09375,0 -0.265625,0 -0.265625,0.171875 0,0.171875 0.15625,0.171875 0.265625,0.171875 l 2.140625,0 0,2.140625 c 0,0.09375 0,0.265625 0.15625,0.265625 0.171875,0 0.171875,-0.171875 0.171875,-0.265625 z m 0,0"
               id="path15507"
               inkscape:connector-curvature="0" />
          </symbol>
        </g>
      </defs>
      <g
         id="textext-a7b3e410-2">
        <g
           style="fill:#000000;fill-opacity:1"
           id="g15510">
          <use
             xlink:href="#textext-a7b3e410-0"
             x="223.43201"
             y="134.765"
             id="use15512"
             width="585"
             height="250.2" />
        </g>
        <g
           style="fill:#000000;fill-opacity:1"
           id="g15514">
          <use
             xlink:href="#textext-a7b3e410-1"
             x="230.786"
             y="136.259"
             id="use15516"
             width="585"
             height="250.2" />
        </g>
      </g>
    </g>
    <g
       id="g15660"
       transform="translate(-40.88981,847.14667)"
       ns0:preamble=""
       ns0:text="$E_-$">
      <defs
         id="defs15662">
        <g
           id="g15664">
          <symbol
             id="textext-9fa0c785-0"
             overflow="visible"
             style="overflow:visible">
            <path
               id="path15667"
               d="M 7.0625,-2.328125 C 7.078125,-2.375 7.109375,-2.4375 7.109375,-2.46875 c 0,0 0,-0.109375 -0.125,-0.109375 -0.09375,0 -0.109375,0.0625 -0.125,0.125 -0.65625,1.46875 -1.015625,2.140625 -2.71875,2.140625 l -1.453125,0 c -0.140625,0 -0.171875,0 -0.21875,0 -0.109375,-0.015625 -0.140625,-0.03125 -0.140625,-0.109375 0,-0.03125 0,-0.046875 0.046875,-0.21875 L 3.0625,-3.375 l 0.984375,0 c 0.84375,0 0.84375,0.21875 0.84375,0.46875 0,0.0625 0,0.1875 -0.0625,0.484375 C 4.8125,-2.375 4.796875,-2.34375 4.796875,-2.3125 c 0,0.046875 0.03125,0.109375 0.125,0.109375 C 5,-2.203125 5.03125,-2.25 5.078125,-2.40625 l 0.5625,-2.328125 c 0,-0.0625 -0.046875,-0.109375 -0.125,-0.109375 -0.078125,0 -0.109375,0.0625 -0.125,0.171875 -0.21875,0.765625 -0.390625,1 -1.3125,1 l -0.9375,0 0.59375,-2.40625 C 3.828125,-6.4375 3.84375,-6.46875 4.28125,-6.46875 l 1.40625,0 c 1.203125,0 1.515625,0.28125 1.515625,1.109375 0,0.234375 0,0.25 -0.046875,0.53125 0,0.046875 -0.015625,0.125 -0.015625,0.171875 0,0.046875 0.03125,0.125 0.125,0.125 0.109375,0 0.125,-0.0625 0.140625,-0.25 L 7.609375,-6.515625 C 7.640625,-6.78125 7.59375,-6.78125 7.34375,-6.78125 l -5.046875,0 c -0.1875,0 -0.296875,0 -0.296875,0.203125 0,0.109375 0.09375,0.109375 0.28125,0.109375 0.375,0 0.65625,0 0.65625,0.171875 0,0.046875 0,0.0625 -0.0625,0.25 L 1.5625,-0.78125 c -0.09375,0.390625 -0.109375,0.46875 -0.90625,0.46875 -0.171875,0 -0.28125,0 -0.28125,0.1875 C 0.375,0 0.46875,0 0.65625,0 l 5.171875,0 c 0.234375,0 0.25,-0.015625 0.3125,-0.171875 z m 0,0"
               style="stroke:none"
               inkscape:connector-curvature="0" />
          </symbol>
          <symbol
             id="textext-9fa0c785-1"
             overflow="visible"
             style="overflow:visible">
            <path
               id="path15670"
               d="m 5.1875,-1.578125 c 0.109375,0 0.28125,0 0.28125,-0.15625 0,-0.1875 -0.171875,-0.1875 -0.28125,-0.1875 l -4.15625,0 c -0.109375,0 -0.28125,0 -0.28125,0.171875 0,0.171875 0.15625,0.171875 0.28125,0.171875 z m 0,0"
               style="stroke:none"
               inkscape:connector-curvature="0" />
          </symbol>
        </g>
      </defs>
      <g
         id="textext-9fa0c785-2">
        <g
           id="g15673"
           style="fill:#000000;fill-opacity:1">
          <use
             id="use15675"
             y="134.765"
             x="223.43201"
             xlink:href="#textext-9fa0c785-0"
             width="585"
             height="250.2" />
        </g>
        <g
           id="g15677"
           style="fill:#000000;fill-opacity:1">
          <use
             id="use15679"
             y="136.259"
             x="230.786"
             xlink:href="#textext-9fa0c785-1"
             width="585"
             height="250.2" />
        </g>
      </g>
    </g>
    <g
       ns0:text="$E_r$"
       ns0:preamble=""
       transform="translate(-174.88981,848.14667)"
       id="g15847">
      <defs
         id="defs15849">
        <g
           id="g15851">
          <symbol
             overflow="visible"
             id="textext-3c68cad7-0"
             style="overflow:visible">
            <path
               style="stroke:none"
               d="M 7.0625,-2.328125 C 7.078125,-2.375 7.109375,-2.4375 7.109375,-2.46875 c 0,0 0,-0.109375 -0.125,-0.109375 -0.09375,0 -0.109375,0.0625 -0.125,0.125 -0.65625,1.46875 -1.015625,2.140625 -2.71875,2.140625 l -1.453125,0 c -0.140625,0 -0.171875,0 -0.21875,0 -0.109375,-0.015625 -0.140625,-0.03125 -0.140625,-0.109375 0,-0.03125 0,-0.046875 0.046875,-0.21875 L 3.0625,-3.375 l 0.984375,0 c 0.84375,0 0.84375,0.21875 0.84375,0.46875 0,0.0625 0,0.1875 -0.0625,0.484375 C 4.8125,-2.375 4.796875,-2.34375 4.796875,-2.3125 c 0,0.046875 0.03125,0.109375 0.125,0.109375 C 5,-2.203125 5.03125,-2.25 5.078125,-2.40625 l 0.5625,-2.328125 c 0,-0.0625 -0.046875,-0.109375 -0.125,-0.109375 -0.078125,0 -0.109375,0.0625 -0.125,0.171875 -0.21875,0.765625 -0.390625,1 -1.3125,1 l -0.9375,0 0.59375,-2.40625 C 3.828125,-6.4375 3.84375,-6.46875 4.28125,-6.46875 l 1.40625,0 c 1.203125,0 1.515625,0.28125 1.515625,1.109375 0,0.234375 0,0.25 -0.046875,0.53125 0,0.046875 -0.015625,0.125 -0.015625,0.171875 0,0.046875 0.03125,0.125 0.125,0.125 0.109375,0 0.125,-0.0625 0.140625,-0.25 L 7.609375,-6.515625 C 7.640625,-6.78125 7.59375,-6.78125 7.34375,-6.78125 l -5.046875,0 c -0.1875,0 -0.296875,0 -0.296875,0.203125 0,0.109375 0.09375,0.109375 0.28125,0.109375 0.375,0 0.65625,0 0.65625,0.171875 0,0.046875 0,0.0625 -0.0625,0.25 L 1.5625,-0.78125 c -0.09375,0.390625 -0.109375,0.46875 -0.90625,0.46875 -0.171875,0 -0.28125,0 -0.28125,0.1875 C 0.375,0 0.46875,0 0.65625,0 l 5.171875,0 c 0.234375,0 0.25,-0.015625 0.3125,-0.171875 z m 0,0"
               id="path15854"
               inkscape:connector-curvature="0" />
          </symbol>
          <symbol
             overflow="visible"
             id="textext-3c68cad7-1"
             style="overflow:visible">
            <path
               style="stroke:none"
               d="m 1.640625,-1.40625 c 0,-0.046875 0.171875,-0.671875 0.171875,-0.703125 0.015625,-0.0625 0.21875,-0.40625 0.453125,-0.578125 0.0625,-0.046875 0.25,-0.1875 0.5625,-0.1875 0.0625,0 0.234375,0 0.375,0.09375 -0.21875,0.0625 -0.296875,0.265625 -0.296875,0.390625 0,0.140625 0.109375,0.25 0.265625,0.25 0.171875,0 0.390625,-0.125 0.390625,-0.421875 0,-0.359375 -0.375,-0.515625 -0.734375,-0.515625 -0.359375,0 -0.671875,0.15625 -0.984375,0.5 -0.125,-0.421875 -0.546875,-0.5 -0.71875,-0.5 -0.25,0 -0.421875,0.171875 -0.546875,0.359375 -0.15625,0.265625 -0.25,0.671875 -0.25,0.71875 0,0.078125 0.09375,0.078125 0.125,0.078125 0.09375,0 0.09375,-0.015625 0.140625,-0.203125 0.109375,-0.421875 0.25,-0.75 0.515625,-0.75 0.1875,0 0.234375,0.15625 0.234375,0.34375 0,0.125 -0.0625,0.390625 -0.125,0.578125 -0.046875,0.1875 -0.109375,0.46875 -0.140625,0.625 L 0.84375,-0.4375 C 0.828125,-0.34375 0.78125,-0.171875 0.78125,-0.15625 0.78125,0 0.90625,0.0625 1.015625,0.0625 1.125,0.0625 1.265625,0 1.3125,-0.125 1.328125,-0.171875 1.40625,-0.484375 1.453125,-0.65625 z m 0,0"
               id="path15857"
               inkscape:connector-curvature="0" />
          </symbol>
        </g>
      </defs>
      <g
         id="textext-3c68cad7-2">
        <g
           style="fill:#000000;fill-opacity:1"
           id="g15860">
          <use
             xlink:href="#textext-3c68cad7-0"
             x="223.43201"
             y="134.765"
             id="use15862"
             width="585"
             height="250.2" />
        </g>
        <g
           style="fill:#000000;fill-opacity:1"
           id="g15864">
          <use
             xlink:href="#textext-3c68cad7-1"
             x="230.786"
             y="136.259"
             id="use15866"
             width="585"
             height="250.2" />
        </g>
      </g>
    </g>
    <g
       id="g16058"
       transform="translate(269.11019,786.14667)"
       ns0:preamble=""
       ns0:text="$E_t$">
      <defs
         id="defs16060">
        <g
           id="g16062">
          <symbol
             id="textext-d65dc6d6-0"
             overflow="visible"
             style="overflow:visible">
            <path
               id="path16065"
               d="M 7.0625,-2.328125 C 7.078125,-2.375 7.109375,-2.4375 7.109375,-2.46875 c 0,0 0,-0.109375 -0.125,-0.109375 -0.09375,0 -0.109375,0.0625 -0.125,0.125 -0.65625,1.46875 -1.015625,2.140625 -2.71875,2.140625 l -1.453125,0 c -0.140625,0 -0.171875,0 -0.21875,0 -0.109375,-0.015625 -0.140625,-0.03125 -0.140625,-0.109375 0,-0.03125 0,-0.046875 0.046875,-0.21875 L 3.0625,-3.375 l 0.984375,0 c 0.84375,0 0.84375,0.21875 0.84375,0.46875 0,0.0625 0,0.1875 -0.0625,0.484375 C 4.8125,-2.375 4.796875,-2.34375 4.796875,-2.3125 c 0,0.046875 0.03125,0.109375 0.125,0.109375 C 5,-2.203125 5.03125,-2.25 5.078125,-2.40625 l 0.5625,-2.328125 c 0,-0.0625 -0.046875,-0.109375 -0.125,-0.109375 -0.078125,0 -0.109375,0.0625 -0.125,0.171875 -0.21875,0.765625 -0.390625,1 -1.3125,1 l -0.9375,0 0.59375,-2.40625 C 3.828125,-6.4375 3.84375,-6.46875 4.28125,-6.46875 l 1.40625,0 c 1.203125,0 1.515625,0.28125 1.515625,1.109375 0,0.234375 0,0.25 -0.046875,0.53125 0,0.046875 -0.015625,0.125 -0.015625,0.171875 0,0.046875 0.03125,0.125 0.125,0.125 0.109375,0 0.125,-0.0625 0.140625,-0.25 L 7.609375,-6.515625 C 7.640625,-6.78125 7.59375,-6.78125 7.34375,-6.78125 l -5.046875,0 c -0.1875,0 -0.296875,0 -0.296875,0.203125 0,0.109375 0.09375,0.109375 0.28125,0.109375 0.375,0 0.65625,0 0.65625,0.171875 0,0.046875 0,0.0625 -0.0625,0.25 L 1.5625,-0.78125 c -0.09375,0.390625 -0.109375,0.46875 -0.90625,0.46875 -0.171875,0 -0.28125,0 -0.28125,0.1875 C 0.375,0 0.46875,0 0.65625,0 l 5.171875,0 c 0.234375,0 0.25,-0.015625 0.3125,-0.171875 z m 0,0"
               style="stroke:none"
               inkscape:connector-curvature="0" />
          </symbol>
          <symbol
             id="textext-d65dc6d6-1"
             overflow="visible"
             style="overflow:visible">
            <path
               id="path16068"
               d="m 1.71875,-2.75 0.703125,0 c 0.140625,0 0.21875,0 0.21875,-0.15625 C 2.640625,-3 2.5625,-3 2.4375,-3 l -0.65625,0 0.25,-1.03125 C 2.046875,-4.0625 2.0625,-4.109375 2.0625,-4.125 c 0,-0.140625 -0.109375,-0.234375 -0.25,-0.234375 -0.171875,0 -0.265625,0.125 -0.328125,0.296875 C 1.4375,-3.875 1.53125,-4.21875 1.21875,-3 l -0.703125,0 c -0.125,0 -0.21875,0 -0.21875,0.15625 C 0.296875,-2.75 0.375,-2.75 0.5,-2.75 l 0.65625,0 L 0.75,-1.109375 C 0.703125,-0.9375 0.640625,-0.6875 0.640625,-0.59375 c 0,0.40625 0.359375,0.65625 0.75,0.65625 0.78125,0 1.21875,-0.96875 1.21875,-1.0625 0,-0.09375 -0.09375,-0.09375 -0.109375,-0.09375 -0.09375,0 -0.09375,0.015625 -0.15625,0.140625 -0.1875,0.4375 -0.546875,0.828125 -0.921875,0.828125 -0.15625,0 -0.25,-0.09375 -0.25,-0.34375 0,-0.0625 0.03125,-0.21875 0.046875,-0.28125 z m 0,0"
               style="stroke:none"
               inkscape:connector-curvature="0" />
          </symbol>
        </g>
      </defs>
      <g
         id="textext-d65dc6d6-2">
        <g
           id="g16071"
           style="fill:#000000;fill-opacity:1">
          <use
             id="use16073"
             y="134.765"
             x="223.43201"
             xlink:href="#textext-d65dc6d6-0"
             width="585"
             height="250.2" />
        </g>
        <g
           id="g16075"
           style="fill:#000000;fill-opacity:1">
          <use
             id="use16077"
             y="136.259"
             x="230.786"
             xlink:href="#textext-d65dc6d6-1"
             width="585"
             height="250.2" />
        </g>
      </g>
    </g>
    <g
       transform="translate(-84.499264,916.05684)"
       ns0:text="ITM"
       ns0:preamble=""
       id="g9928">
      <defs
         id="defs9930">
        <g
           id="g9932">
          <symbol
             style="overflow:visible"
             overflow="visible"
             id="textext-a78fdd5e-0">
            <path
               inkscape:connector-curvature="0"
               style="stroke:none"
               d="M 2.25,-6.03125 C 2.25,-6.390625 2.265625,-6.5 3.0625,-6.5 l 0.25,0 0,-0.3125 c -0.34375,0.03125 -1.125,0.03125 -1.515625,0.03125 -0.375,0 -1.171875,0 -1.515625,-0.03125 l 0,0.3125 0.25,0 c 0.796875,0 0.828125,0.109375 0.828125,0.46875 l 0,5.25 c 0,0.359375 -0.03125,0.46875 -0.828125,0.46875 l -0.25,0 0,0.3125 c 0.34375,-0.03125 1.140625,-0.03125 1.515625,-0.03125 0.390625,0 1.171875,0 1.515625,0.03125 l 0,-0.3125 -0.25,0 C 2.265625,-0.3125 2.25,-0.421875 2.25,-0.78125 z m 0,0"
               id="path9935" />
          </symbol>
          <symbol
             style="overflow:visible"
             overflow="visible"
             id="textext-a78fdd5e-1">
            <path
               inkscape:connector-curvature="0"
               style="stroke:none"
               d="m 6.640625,-6.75 -6.09375,0 -0.1875,2.25 0.25,0 C 0.75,-6.109375 0.890625,-6.4375 2.40625,-6.4375 c 0.171875,0 0.4375,0 0.53125,0.015625 0.21875,0.046875 0.21875,0.15625 0.21875,0.375 l 0,5.265625 c 0,0.328125 0,0.46875 -1.046875,0.46875 l -0.40625,0 0,0.3125 C 2.109375,-0.03125 3.125,-0.03125 3.59375,-0.03125 c 0.453125,0 1.484375,0 1.890625,0.03125 l 0,-0.3125 -0.40625,0 c -1.046875,0 -1.046875,-0.140625 -1.046875,-0.46875 l 0,-5.265625 c 0,-0.1875 0,-0.328125 0.1875,-0.375 0.109375,-0.015625 0.375,-0.015625 0.5625,-0.015625 1.515625,0 1.65625,0.328125 1.796875,1.9375 l 0.25,0 z m 0,0"
               id="path9938" />
          </symbol>
          <symbol
             style="overflow:visible"
             overflow="visible"
             id="textext-a78fdd5e-2">
            <path
               inkscape:connector-curvature="0"
               style="stroke:none"
               d="M 2.40625,-6.59375 C 2.3125,-6.8125 2.28125,-6.8125 2.046875,-6.8125 l -1.671875,0 0,0.3125 0.234375,0 c 0.765625,0 0.78125,0.109375 0.78125,0.46875 l 0,4.984375 c 0,0.265625 0,0.734375 -1.015625,0.734375 L 0.375,0 c 0.34375,-0.015625 0.828125,-0.03125 1.15625,-0.03125 0.328125,0 0.828125,0.015625 1.171875,0.03125 l 0,-0.3125 c -1.03125,0 -1.03125,-0.46875 -1.03125,-0.734375 l 0,-5.375 0.015625,0 2.40625,6.203125 C 4.140625,-0.09375 4.1875,0 4.28125,0 4.390625,0 4.421875,-0.078125 4.46875,-0.1875 L 6.921875,-6.5 l 0,5.71875 c 0,0.359375 -0.015625,0.46875 -0.78125,0.46875 l -0.234375,0 0,0.3125 c 0.359375,-0.03125 1.046875,-0.03125 1.4375,-0.03125 0.375,0 1.046875,0 1.421875,0.03125 l 0,-0.3125 -0.25,0 c -0.765625,0 -0.78125,-0.109375 -0.78125,-0.46875 l 0,-5.25 C 7.734375,-6.390625 7.75,-6.5 8.515625,-6.5 l 0.25,0 0,-0.3125 -1.6875,0 C 6.8125,-6.8125 6.8125,-6.796875 6.75,-6.625 L 4.5625,-1 z m 0,0"
               id="path9941" />
          </symbol>
        </g>
      </defs>
      <g
         id="textext-a78fdd5e-3">
        <g
           style="fill:#000000;fill-opacity:1"
           id="g9944">
          <use
             height="160.2"
             width="585"
             xlink:href="#textext-a78fdd5e-0"
             x="223.43201"
             y="134.765"
             id="use9946" />
          <use
             height="160.2"
             width="585"
             xlink:href="#textext-a78fdd5e-1"
             x="227.0295"
             y="134.765"
             id="use9948" />
          <use
             height="160.2"
             width="585"
             xlink:href="#textext-a78fdd5e-2"
             x="234.22449"
             y="134.765"
             id="use9950" />
        </g>
      </g>
    </g>
    <g
       id="g10198"
       transform="translate(218.49599,915.70329)"
       ns0:preamble=""
       ns0:text="ETM">
      <defs
         id="defs10200">
        <g
           id="g10202">
          <symbol
             id="textext-4a86bfdf-0"
             overflow="visible">
            <path
               id="path10205"
               d="M 1.359375 -0.78125 C 1.359375 -0.421875 1.328125 -0.3125 0.5625 -0.3125 L 0.328125 -0.3125 L 0.328125 0 L 6.078125 0 L 6.5 -2.578125 L 6.25 -2.578125 C 6 -1.03125 5.765625 -0.3125 4.0625 -0.3125 L 2.734375 -0.3125 C 2.265625 -0.3125 2.25 -0.375 2.25 -0.703125 L 2.25 -3.375 L 3.140625 -3.375 C 4.109375 -3.375 4.21875 -3.046875 4.21875 -2.203125 L 4.46875 -2.203125 L 4.46875 -4.84375 L 4.21875 -4.84375 C 4.21875 -3.984375 4.109375 -3.671875 3.140625 -3.671875 L 2.25 -3.671875 L 2.25 -6.078125 C 2.25 -6.40625 2.265625 -6.46875 2.734375 -6.46875 L 4.015625 -6.46875 C 5.546875 -6.46875 5.8125 -5.921875 5.96875 -4.53125 L 6.21875 -4.53125 L 5.9375 -6.78125 L 0.328125 -6.78125 L 0.328125 -6.46875 L 0.5625 -6.46875 C 1.328125 -6.46875 1.359375 -6.359375 1.359375 -6 Z M 1.359375 -0.78125 "
               style="stroke:none;" />
          </symbol>
          <symbol
             id="textext-4a86bfdf-1"
             overflow="visible">
            <path
               id="path10208"
               d="M 6.640625 -6.75 L 0.546875 -6.75 L 0.359375 -4.5 L 0.609375 -4.5 C 0.75 -6.109375 0.890625 -6.4375 2.40625 -6.4375 C 2.578125 -6.4375 2.84375 -6.4375 2.9375 -6.421875 C 3.15625 -6.375 3.15625 -6.265625 3.15625 -6.046875 L 3.15625 -0.78125 C 3.15625 -0.453125 3.15625 -0.3125 2.109375 -0.3125 L 1.703125 -0.3125 L 1.703125 0 C 2.109375 -0.03125 3.125 -0.03125 3.59375 -0.03125 C 4.046875 -0.03125 5.078125 -0.03125 5.484375 0 L 5.484375 -0.3125 L 5.078125 -0.3125 C 4.03125 -0.3125 4.03125 -0.453125 4.03125 -0.78125 L 4.03125 -6.046875 C 4.03125 -6.234375 4.03125 -6.375 4.21875 -6.421875 C 4.328125 -6.4375 4.59375 -6.4375 4.78125 -6.4375 C 6.296875 -6.4375 6.4375 -6.109375 6.578125 -4.5 L 6.828125 -4.5 Z M 6.640625 -6.75 "
               style="stroke:none;" />
          </symbol>
          <symbol
             id="textext-4a86bfdf-2"
             overflow="visible">
            <path
               id="path10211"
               d="M 2.40625 -6.59375 C 2.3125 -6.8125 2.28125 -6.8125 2.046875 -6.8125 L 0.375 -6.8125 L 0.375 -6.5 L 0.609375 -6.5 C 1.375 -6.5 1.390625 -6.390625 1.390625 -6.03125 L 1.390625 -1.046875 C 1.390625 -0.78125 1.390625 -0.3125 0.375 -0.3125 L 0.375 0 C 0.71875 -0.015625 1.203125 -0.03125 1.53125 -0.03125 C 1.859375 -0.03125 2.359375 -0.015625 2.703125 0 L 2.703125 -0.3125 C 1.671875 -0.3125 1.671875 -0.78125 1.671875 -1.046875 L 1.671875 -6.421875 L 1.6875 -6.421875 L 4.09375 -0.21875 C 4.140625 -0.09375 4.1875 0 4.28125 0 C 4.390625 0 4.421875 -0.078125 4.46875 -0.1875 L 6.921875 -6.5 L 6.921875 -0.78125 C 6.921875 -0.421875 6.90625 -0.3125 6.140625 -0.3125 L 5.90625 -0.3125 L 5.90625 0 C 6.265625 -0.03125 6.953125 -0.03125 7.34375 -0.03125 C 7.71875 -0.03125 8.390625 -0.03125 8.765625 0 L 8.765625 -0.3125 L 8.515625 -0.3125 C 7.75 -0.3125 7.734375 -0.421875 7.734375 -0.78125 L 7.734375 -6.03125 C 7.734375 -6.390625 7.75 -6.5 8.515625 -6.5 L 8.765625 -6.5 L 8.765625 -6.8125 L 7.078125 -6.8125 C 6.8125 -6.8125 6.8125 -6.796875 6.75 -6.625 L 4.5625 -1 Z M 2.40625 -6.59375 "
               style="stroke:none;" />
          </symbol>
        </g>
      </defs>
      <g
         id="textext-4a86bfdf-3">
        <g
           id="g10214"
           style="fill:rgb(0%,0%,0%);fill-opacity:1;">
          <use
             id="use10216"
             y="134.765"
             x="223.432"
             xlink:href="#textext-4a86bfdf-0" />
          <use
             id="use10218"
             y="134.765"
             x="230.212546"
             xlink:href="#textext-4a86bfdf-1" />
          <use
             id="use10220"
             y="134.765"
             x="237.407535"
             xlink:href="#textext-4a86bfdf-2" />
        </g>
      </g>
    </g>
  </g>
</svg>
